<?xml version="1.0" encoding="UTF-8" standalone="no"?>
<!-- Created with Inkscape (http://www.inkscape.org/) -->

<svg
   xmlns:dc="http://purl.org/dc/elements/1.1/"
   xmlns:cc="http://creativecommons.org/ns#"
   xmlns:rdf="http://www.w3.org/1999/02/22-rdf-syntax-ns#"
   xmlns:svg="http://www.w3.org/2000/svg"
   xmlns="http://www.w3.org/2000/svg"
   xmlns:sodipodi="http://sodipodi.sourceforge.net/DTD/sodipodi-0.dtd"
   xmlns:inkscape="http://www.inkscape.org/namespaces/inkscape"
   width="250"
   height="250"
   viewBox="0 0 66.145832 66.145835"
   version="1.1"
   id="svg1422"
   inkscape:version="0.92.4 (5da689c313, 2019-01-14)"
   sodipodi:docname="sport climb.svg">
  <defs
     id="defs1416" />
  <sodipodi:namedview
     id="base"
     pagecolor="#ffffff"
     bordercolor="#666666"
     borderopacity="1.0"
     inkscape:pageopacity="0.0"
     inkscape:pageshadow="2"
     inkscape:zoom="1.0980868"
     inkscape:cx="217.20882"
     inkscape:cy="90.062091"
     inkscape:document-units="mm"
     inkscape:current-layer="layer1"
     showgrid="false"
     units="px"
     inkscape:pagecheckerboard="true"
     inkscape:window-width="1366"
     inkscape:window-height="705"
     inkscape:window-x="-8"
     inkscape:window-y="-8"
     inkscape:window-maximized="1"
     showguides="false" />
  <metadata
     id="metadata1419">
    <rdf:RDF>
      <cc:Work
         rdf:about="">
        <dc:format>image/svg+xml</dc:format>
        <dc:type
           rdf:resource="http://purl.org/dc/dcmitype/StillImage" />
        <dc:title></dc:title>
      </cc:Work>
    </rdf:RDF>
  </metadata>
  <g
     inkscape:label="Layer 1"
     inkscape:groupmode="layer"
     id="layer1"
     transform="translate(0,-230.85415)">
    <g
       id="g1749"
       transform="matrix(2.9169974,0,0,-2.9168688,66.145833,263.92852)"
       style="fill:#1f2937;fill-opacity:1;stroke-width:0.12094133">
      <path
         d="m 0,0 c 0,-6.262 -5.076,-11.338 -11.338,-11.338 -6.262,0 -11.338,5.076 -11.338,11.338 0,6.263 5.076,11.339 11.338,11.339 C -5.076,11.339 0,6.263 0,0"
         style="fill:#1f2937;fill-opacity:1;fill-rule:nonzero;stroke:none;stroke-width:0.12094133"
         id="path1751"
         inkscape:connector-curvature="0" />
    </g>
    <g
       id="g1753"
       transform="matrix(2.9168688,0,0,-2.9168688,40.847817,271.66987)"
       style="stroke-width:0.120944">
      <path
         d="M 0,0 C -0.027,0.017 -0.055,0.033 -0.084,0.046 L -3.21,1.433 c 0.247,0.712 0.465,1.403 0.685,2.122 C -1.251,2.908 0.404,2.086 0.669,1.969 0.729,1.943 0.761,1.938 0.807,1.936 0.944,1.929 1.065,2 1.134,2.108 L 1.296,0.406 C 1.303,0.338 1.33,0.273 1.374,0.221 L 3.463,-2.281 Z M 1.964,0.576 1.528,5.145 C 1.522,5.213 1.495,5.278 1.45,5.331 l -4.416,5.262 -1.063,3.318 c -0.23,-0.027 -0.457,-0.062 -0.682,-0.102 l 1.064,-3.323 C -3.793,10.257 -5.197,8.054 -5.436,7.649 -5.632,7.45 -6.231,6.846 -6.695,6.36 c 0.624,0.249 1.473,0.553 2.05,0.745 0.073,0.13 0.393,1.011 0.65,1.708 C -4.136,8.103 -4.284,7.321 -4.36,6.84 -5.076,6.609 -6.469,6.11 -7.068,5.831 -7.242,5.748 -7.38,5.609 -7.462,5.423 -7.643,5.011 -7.455,4.531 -7.043,4.351 -6.834,4.26 -6.617,4.265 -6.397,4.348 c 0.185,0.071 2.482,1.423 2.757,1.586 0.188,0.111 0.29,0.267 0.304,0.435 0.015,0.136 0.184,2.192 0.274,3.28 L 0.861,4.975 1.092,2.559 C 1.072,2.578 1.052,2.597 1.029,2.612 0.928,2.685 -2.463,4.986 -2.59,5.067 -2.668,5.117 -2.793,5.161 -2.912,5.166 -3.172,5.177 -3.398,5.034 -3.519,4.822 -3.612,4.661 -5.279,1.517 -5.374,1.339 -5.465,1.168 -5.506,0.99 -5.503,0.798 c 0.006,-0.516 0.347,-0.94 0.831,-1.075 0.542,-0.15 3.109,-0.73 4.08,-0.918 1.268,-0.68 3.387,-1.725 4.008,-1.989 0.048,-0.02 0.101,-0.031 0.157,-0.031 0.199,0.003 0.359,0.152 0.383,0.343 l 1.761,-2.107 c 0.155,0.169 0.304,0.344 0.449,0.524"
         style="fill:#ffffff;fill-opacity:1;fill-rule:nonzero;stroke:none;stroke-width:0.120944"
         id="path1755"
         inkscape:connector-curvature="0" />
    </g>
    <g
       id="g1757"
       transform="matrix(2.9168688,0,0,-2.9168688,21.185205,249.81082)"
       style="stroke-width:0.120944">
      <path
         d="m 0,0 c 0,0.658 -0.533,1.191 -1.19,1.191 -0.658,0 -1.191,-0.533 -1.191,-1.191 0,-0.657 0.533,-1.19 1.191,-1.19 C -0.533,-1.19 0,-0.657 0,0"
         style="fill:#ffffff;fill-opacity:1;fill-rule:nonzero;stroke:none;stroke-width:0.120944"
         id="path1759"
         inkscape:connector-curvature="0" />
    </g>
  </g>
</svg>
