<?xml version="1.0" encoding="UTF-8" standalone="no"?>
<!-- Created with Inkscape (http://www.inkscape.org/) -->

<svg
   xmlns:dc="http://purl.org/dc/elements/1.1/"
   xmlns:cc="http://creativecommons.org/ns#"
   xmlns:rdf="http://www.w3.org/1999/02/22-rdf-syntax-ns#"
   xmlns:svg="http://www.w3.org/2000/svg"
   xmlns="http://www.w3.org/2000/svg"
   xmlns:sodipodi="http://sodipodi.sourceforge.net/DTD/sodipodi-0.dtd"
   xmlns:inkscape="http://www.inkscape.org/namespaces/inkscape"
   width="250"
   height="250"
   viewBox="0 0 66.145832 66.145835"
   version="1.1"
   id="svg1422"
   inkscape:version="0.92.4 (5da689c313, 2019-01-14)"
   sodipodi:docname="weight.svg">
  <defs
     id="defs1416" />
  <sodipodi:namedview
     id="base"
     pagecolor="#ffffff"
     bordercolor="#666666"
     borderopacity="1.0"
     inkscape:pageopacity="0.0"
     inkscape:pageshadow="2"
     inkscape:zoom="0.8689731"
     inkscape:cx="219.88899"
     inkscape:cy="-28.817818"
     inkscape:document-units="mm"
     inkscape:current-layer="layer1"
     showgrid="false"
     units="px"
     inkscape:pagecheckerboard="true"
     inkscape:window-width="1366"
     inkscape:window-height="705"
     inkscape:window-x="-8"
     inkscape:window-y="-8"
     inkscape:window-maximized="1"
     showguides="false" />
  <metadata
     id="metadata1419">
    <rdf:RDF>
      <cc:Work
         rdf:about="">
        <dc:format>image/svg+xml</dc:format>
        <dc:type
           rdf:resource="http://purl.org/dc/dcmitype/StillImage" />
        <dc:title></dc:title>
      </cc:Work>
    </rdf:RDF>
  </metadata>
  <g
     inkscape:label="Layer 1"
     inkscape:groupmode="layer"
     id="layer1"
     transform="translate(0,-230.85415)">
    <g
       id="g1673"
       transform="matrix(2.9168688,0,0,-2.9168688,66.145834,263.92852)"
       style="fill:#842435;fill-opacity:1;stroke-width:0.120944">
      <path
         d="m 0,0 c 0,-6.262 -5.077,-11.338 -11.339,-11.338 -6.262,0 -11.338,5.076 -11.338,11.338 0,6.263 5.076,11.339 11.338,11.339 C -5.077,11.339 0,6.263 0,0"
         style="fill:#842435;fill-opacity:1;fill-rule:nonzero;stroke:none;stroke-width:0.120944"
         id="path1675"
         inkscape:connector-curvature="0" />
    </g>
    <g
       id="g1677"
       transform="matrix(2.9168688,0,0,-2.9168688,37.391344,247.48032)"
       style="stroke-width:0.120944">
      <path
         d="m 0,0 c -0.216,0.001 -0.426,0.03 -0.627,0.082 -0.037,-0.378 -0.065,-0.675 -0.074,-0.791 -0.061,-0.314 -0.452,-2.53 -0.472,-2.743 -0.037,-0.403 0.166,-0.78 0.544,-0.947 0.466,-0.204 1.01,0.007 1.215,0.472 0.057,0.129 0.077,0.261 0.077,0.396 0.002,0.285 -0.163,2.485 -0.19,2.768 0,0.099 -0.002,0.406 -0.005,0.803 C 0.323,0.014 0.167,-0.002 0,0"
         style="fill:#ffffff;fill-opacity:1;fill-rule:nonzero;stroke:none;stroke-width:0.120944"
         id="path1679"
         inkscape:connector-curvature="0" />
    </g>
    <g
       id="g1681"
       transform="matrix(2.9168688,0,0,-2.9168688,40.491984,255.21291)"
       style="stroke-width:0.120944">
      <path
         d="m 0,0 c 0,-0.58 0.469,-1.05 1.049,-1.05 0.58,0 1.05,0.47 1.05,1.05 0,0.579 -0.47,1.049 -1.05,1.049 C 0.469,1.049 0,0.579 0,0"
         style="fill:#ffffff;fill-opacity:1;fill-rule:nonzero;stroke:none;stroke-width:0.120944"
         id="path1683"
         inkscape:connector-curvature="0" />
    </g>
    <g
       id="g1685"
       transform="matrix(2.9168688,0,0,-2.9168688,43.995144,289.47737)"
       style="stroke-width:0.120944">
      <path
         d="m 0,0 c -0.001,-0.233 0.185,-0.414 0.403,-0.415 0.203,-0.002 0.372,0.154 0.404,0.342 l 0.722,4.51 C 1.535,4.469 1.537,4.503 1.537,4.536 1.539,4.791 1.402,5.013 1.197,5.131 0.249,5.668 -2.142,7.082 -2.389,7.195 -2.545,7.27 -2.709,7.311 -2.885,7.31 -3.251,7.308 -3.537,7.148 -3.788,6.843 -3.992,6.587 -5.394,4.136 -5.855,3.349 -6.597,2.687 -9.113,0.343 -9.2,0.247 -9.36,0.07 -9.359,-0.18 -9.197,-0.343 c 0.148,-0.151 0.38,-0.161 0.549,-0.046 l 3.772,2.713 c 0.02,0.015 0.044,0.033 0.067,0.055 0.01,0.009 0.032,0.032 0.041,0.042 0.547,0.578 1.695,1.862 2.332,2.603 C -1.679,4.735 -0.56,4.319 0.143,4.067 0.086,2.887 0.006,0.42 0,0"
         style="fill:#ffffff;fill-opacity:1;fill-rule:nonzero;stroke:none;stroke-width:0.120944"
         id="path1687"
         inkscape:connector-curvature="0" />
    </g>
    <g
       id="g1689"
       transform="matrix(2.9168688,0,0,-2.9168688,37.458434,238.87841)"
       style="stroke-width:0.120944">
      <path
         d="m 0,0 c 0.194,-0.002 0.35,-0.16 0.349,-0.355 -0.002,-0.193 -0.16,-0.35 -0.355,-0.348 -0.194,0.001 -0.35,0.16 -0.348,0.354 C -0.353,-0.155 -0.194,0.001 0,0 m -0.021,-2.609 c 1.247,-0.01 2.266,0.993 2.275,2.24 0.01,1.246 -0.992,2.265 -2.239,2.274 -1.247,0.01 -2.265,-0.992 -2.275,-2.239 -0.01,-1.247 0.993,-2.265 2.239,-2.275"
         style="fill:#ffffff;fill-opacity:1;fill-rule:nonzero;stroke:none;stroke-width:0.120944"
         id="path1691"
         inkscape:connector-curvature="0" />
    </g>
  </g>
</svg>
